<svg width="41" height="41" viewBox="0 0 41 41" fill="none" xmlns="http://www.w3.org/2000/svg">
<rect width="41" height="41" fill="#1F1F1F"/>
<path d="M20.3298 21.6596C19.0779 21.6596 17.8541 21.2884 16.8132 20.5929C15.7722 19.8973 14.9609 18.9088 14.4818 17.7521C14.0027 16.5955 13.8774 15.3228 14.1216 14.0949C14.3659 12.8671 14.9687 11.7392 15.854 10.854C16.7392 9.96872 17.8671 9.36587 19.0949 9.12163C20.3228 8.87739 21.5955 9.00274 22.7521 9.48183C23.9088 9.96092 24.8973 10.7722 25.5929 11.8132C26.2884 12.8541 26.6596 14.0779 26.6596 15.3298C26.6596 17.0086 25.9927 18.6186 24.8057 19.8057C23.6186 20.9927 22.0086 21.6596 20.3298 21.6596ZM20.3298 11.1099C19.4952 11.1099 18.6793 11.3574 17.9854 11.8211C17.2914 12.2848 16.7506 12.9439 16.4312 13.7149C16.1118 14.486 16.0282 15.3345 16.191 16.1531C16.3538 16.9717 16.7558 17.7236 17.3459 18.3137C17.9361 18.9039 18.688 19.3058 19.5066 19.4686C20.3251 19.6314 21.1736 19.5479 21.9447 19.2285C22.7158 18.9091 23.3748 18.3682 23.8385 17.6743C24.3022 16.9803 24.5497 16.1644 24.5497 15.3298C24.5497 14.2106 24.1051 13.1373 23.3137 12.3459C22.5223 11.5545 21.449 11.1099 20.3298 11.1099V11.1099Z" fill="white"/>
<path d="M25.7696 31.1544H15.2199C14.1007 31.1544 13.0274 30.7098 12.236 29.9184C11.4446 29.127 11 28.0537 11 26.9345V24.2443C11.0019 24.0348 11.0661 23.8306 11.1845 23.6578C11.3029 23.4849 11.47 23.3512 11.6646 23.2737L15.5047 21.7335C15.6349 21.6758 15.7754 21.645 15.9178 21.643C16.0601 21.6411 16.2014 21.668 16.3331 21.7221C16.4648 21.7762 16.5842 21.8564 16.6841 21.9578C16.784 22.0593 16.8623 22.1799 16.9143 22.3125C16.9664 22.445 16.991 22.5867 16.9868 22.7291C16.9826 22.8714 16.9496 23.0114 16.8899 23.1406C16.8301 23.2699 16.7448 23.3857 16.6391 23.4811C16.5334 23.5765 16.4095 23.6495 16.2748 23.6957L13.1099 24.9617V26.9345C13.1099 27.4941 13.3322 28.0307 13.7279 28.4264C14.1236 28.8221 14.6603 29.0444 15.2199 29.0444H25.7696C26.3292 29.0444 26.8658 28.8221 27.2615 28.4264C27.6572 28.0307 27.8795 27.4941 27.8795 26.9345V24.9617L24.7146 23.6957C24.4544 23.5922 24.246 23.3895 24.1352 23.1323C24.0244 22.8751 24.0203 22.5845 24.1238 22.3243C24.2273 22.0641 24.43 21.8556 24.6872 21.7448C24.9444 21.634 25.2351 21.63 25.4953 21.7335L29.3354 23.2737C29.53 23.3512 29.6971 23.4849 29.8155 23.6578C29.9339 23.8306 29.9981 24.0348 30 24.2443V26.9345C30 27.4895 29.8905 28.0391 29.6778 28.5518C29.465 29.0645 29.1533 29.5301 28.7603 29.9221C28.3673 30.3141 27.9009 30.6247 27.3877 30.8362C26.8745 31.0476 26.3246 31.1557 25.7696 31.1544V31.1544Z" fill="white"/>
</svg>
