<svg width="40" height="40" viewBox="0 0 40 40" fill="none" xmlns="http://www.w3.org/2000/svg">
<path fill-rule="evenodd" clip-rule="evenodd" d="M20.0038 0C8.96251 0 0.0100098 8.9525 0.0100098 19.9963C0.0100098 28.83 5.73751 36.325 13.685 38.97C14.685 39.1525 15 38.56 15 38.03C15 37.555 15.01 36.2275 15 34.5588C9.43876 35.7675 8.28626 31.925 8.28626 31.925C7.37751 29.615 6.06751 29 6.06751 29C4.25251 27.76 6.20376 27.7837 6.20376 27.7837C8.21001 27.925 9.26751 29.845 9.26751 29.845C11.0513 32.8988 13.9463 32.0163 15.085 31.5063C15.2675 30.2137 15.785 29.3325 16.3563 28.8325C11.9163 28.3275 7.24876 26.6125 7.24876 18.95C7.24876 16.7663 8.02751 14.9825 9.30626 13.585C9.10001 13.08 8.41251 11.0462 9.50251 8.2925C9.50251 8.2925 11.1813 7.755 15 10.3438C16.595 9.9 18.3063 9.67875 20.0063 9.67125C21.705 9.67875 23.415 9.9 25.0125 10.3438C28.8313 7.75625 30.5075 8.2925 30.5075 8.2925C31.5975 11.0462 30.9113 13.08 30.7063 13.585C31.985 14.9825 32.7613 16.7663 32.7613 18.95C32.7613 26.6325 28.0863 28.3225 23.6313 28.8162C24.3488 29.435 25 30.635 25 32.5C25 35 25 37.3775 25 38.035C25 38.57 25.3225 39.1613 26.3375 38.9675C34.2775 36.3187 40 28.8275 40 19.9963C40 8.9525 31.0475 0 20.0038 0Z" fill="#1F1F1F"/>
</svg>
