<svg width="40" height="40" viewBox="0 0 40 40" fill="none" xmlns="http://www.w3.org/2000/svg">
<path d="M20.0001 9.59668C14.3549 9.59668 9.67749 14.1935 9.67749 19.9193C9.67749 25.6451 14.2743 30.2418 20.0001 30.2418C25.7259 30.2418 30.3227 25.5644 30.3227 19.9193C30.3227 14.2741 25.6452 9.59668 20.0001 9.59668ZM20.0001 26.5322C16.371 26.5322 13.3872 23.5483 13.3872 19.9193C13.3872 16.2902 16.371 13.3064 20.0001 13.3064C23.6291 13.3064 26.613 16.2902 26.613 19.9193C26.613 23.5483 23.6291 26.5322 20.0001 26.5322Z" fill="#1F1F1F"/>
<path d="M30.726 11.6935C32.0177 11.6935 33.0648 10.6465 33.0648 9.35482C33.0648 8.06319 32.0177 7.01611 30.726 7.01611C29.4344 7.01611 28.3873 8.06319 28.3873 9.35482C28.3873 10.6465 29.4344 11.6935 30.726 11.6935Z" fill="#1F1F1F"/>
<path d="M36.7742 3.30645C34.6774 1.12903 31.6935 0 28.3065 0H11.6935C4.67742 0 0 4.67742 0 11.6935V28.2258C0 31.6935 1.12903 34.6774 3.3871 36.8548C5.56452 38.9516 8.46774 40 11.7742 40H28.2258C31.6935 40 34.5968 38.871 36.6935 36.8548C38.871 34.7581 40 31.7742 40 28.3065V11.6935C40 8.30645 38.871 5.40322 36.7742 3.30645ZM36.4516 28.3065C36.4516 30.8065 35.5645 32.8226 34.1129 34.1935C32.6613 35.5645 30.6452 36.2903 28.2258 36.2903H11.7742C9.35484 36.2903 7.33871 35.5645 5.8871 34.1935C4.43548 32.7419 3.70968 30.7258 3.70968 28.2258V11.6935C3.70968 9.27419 4.43548 7.25806 5.8871 5.80645C7.25806 4.43548 9.35484 3.70968 11.7742 3.70968H28.3871C30.8064 3.70968 32.8226 4.43548 34.2742 5.8871C35.6452 7.33871 36.4516 9.35484 36.4516 11.6935V28.3065Z" fill="#1F1F1F"/>
</svg>
