<svg width="160" height="40" viewBox="0 0 160 40" fill="none" xmlns="http://www.w3.org/2000/svg">
    <path d="M64.196 27.22C62.6413 27.22 61.2333 26.8827 59.972 26.208C58.7253 25.5187 57.7427 24.5727 57.024 23.37C56.32 22.1673 55.968 20.8107 55.968 19.3C55.968 17.7893 56.3273 16.4327 57.046 15.23C57.7647 14.0273 58.7473 13.0887 59.994 12.414C61.2553 11.7247 62.6633 11.38 64.218 11.38C65.4793 11.38 66.6307 11.6 67.672 12.04C68.7133 12.48 69.5933 13.118 70.312 13.954L68.464 15.692C67.3493 14.4893 65.978 13.888 64.35 13.888C63.294 13.888 62.348 14.1227 61.512 14.592C60.676 15.0467 60.0233 15.6847 59.554 16.506C59.0847 17.3273 58.85 18.2587 58.85 19.3C58.85 20.3413 59.0847 21.2727 59.554 22.094C60.0233 22.9153 60.676 23.5607 61.512 24.03C62.348 24.4847 63.294 24.712 64.35 24.712C65.978 24.712 67.3493 24.1033 68.464 22.886L70.312 24.646C69.5933 25.482 68.706 26.12 67.65 26.56C66.6087 27 65.4573 27.22 64.196 27.22ZM81.0241 27.22C79.4548 27.22 78.0394 26.8827 76.7781 26.208C75.5168 25.5187 74.5268 24.5727 73.8081 23.37C73.0894 22.1527 72.7301 20.796 72.7301 19.3C72.7301 17.804 73.0894 16.4547 73.8081 15.252C74.5268 14.0347 75.5168 13.0887 76.7781 12.414C78.0394 11.7247 79.4548 11.38 81.0241 11.38C82.5934 11.38 84.0088 11.7247 85.2701 12.414C86.5314 13.0887 87.5214 14.0273 88.2401 15.23C88.9588 16.4327 89.3181 17.7893 89.3181 19.3C89.3181 20.8107 88.9588 22.1673 88.2401 23.37C87.5214 24.5727 86.5314 25.5187 85.2701 26.208C84.0088 26.8827 82.5934 27.22 81.0241 27.22ZM81.0241 24.712C82.0508 24.712 82.9748 24.4847 83.7961 24.03C84.6174 23.5607 85.2628 22.9153 85.7321 22.094C86.2014 21.258 86.4361 20.3267 86.4361 19.3C86.4361 18.2733 86.2014 17.3493 85.7321 16.528C85.2628 15.692 84.6174 15.0467 83.7961 14.592C82.9748 14.1227 82.0508 13.888 81.0241 13.888C79.9974 13.888 79.0734 14.1227 78.2521 14.592C77.4308 15.0467 76.7854 15.692 76.3161 16.528C75.8468 17.3493 75.6121 18.2733 75.6121 19.3C75.6121 20.3267 75.8468 21.258 76.3161 22.094C76.7854 22.9153 77.4308 23.5607 78.2521 24.03C79.0734 24.4847 79.9974 24.712 81.0241 24.712ZM100.644 27.22C99.0743 27.22 97.659 26.8827 96.3976 26.208C95.1363 25.5187 94.1463 24.5727 93.4276 23.37C92.709 22.1527 92.3496 20.796 92.3496 19.3C92.3496 17.804 92.709 16.4547 93.4276 15.252C94.1463 14.0347 95.1363 13.0887 96.3976 12.414C97.659 11.7247 99.0743 11.38 100.644 11.38C102.213 11.38 103.628 11.7247 104.89 12.414C106.151 13.0887 107.141 14.0273 107.86 15.23C108.578 16.4327 108.938 17.7893 108.938 19.3C108.938 20.8107 108.578 22.1673 107.86 23.37C107.141 24.5727 106.151 25.5187 104.89 26.208C103.628 26.8827 102.213 27.22 100.644 27.22ZM100.644 24.712C101.67 24.712 102.594 24.4847 103.416 24.03C104.237 23.5607 104.882 22.9153 105.352 22.094C105.821 21.258 106.056 20.3267 106.056 19.3C106.056 18.2733 105.821 17.3493 105.352 16.528C104.882 15.692 104.237 15.0467 103.416 14.592C102.594 14.1227 101.67 13.888 100.644 13.888C99.617 13.888 98.693 14.1227 97.8716 14.592C97.0503 15.0467 96.405 15.692 95.9356 16.528C95.4663 17.3493 95.2316 18.2733 95.2316 19.3C95.2316 20.3267 95.4663 21.258 95.9356 22.094C96.405 22.9153 97.0503 23.5607 97.8716 24.03C98.693 24.4847 99.617 24.712 100.644 24.712ZM119.405 11.6C120.74 11.6 121.899 11.82 122.881 12.26C123.879 12.7 124.641 13.3307 125.169 14.152C125.697 14.9733 125.961 15.9487 125.961 17.078C125.961 18.1927 125.697 19.168 125.169 20.004C124.641 20.8253 123.879 21.456 122.881 21.896C121.899 22.336 120.74 22.556 119.405 22.556H115.929V27H113.069V11.6H119.405ZM119.273 20.136C120.52 20.136 121.466 19.872 122.111 19.344C122.757 18.816 123.079 18.0607 123.079 17.078C123.079 16.0953 122.757 15.34 122.111 14.812C121.466 14.284 120.52 14.02 119.273 14.02H115.929V20.136H119.273ZM141.467 24.602V27H129.917V11.6H141.159V13.998H132.777V18.002H140.213V20.356H132.777V24.602H141.467ZM155.832 27L152.686 22.49C152.554 22.5047 152.356 22.512 152.092 22.512H148.616V27H145.756V11.6H152.092C153.426 11.6 154.585 11.82 155.568 12.26C156.565 12.7 157.328 13.3307 157.856 14.152C158.384 14.9733 158.648 15.9487 158.648 17.078C158.648 18.2367 158.362 19.234 157.79 20.07C157.232 20.906 156.426 21.5293 155.37 21.94L158.912 27H155.832ZM155.766 17.078C155.766 16.0953 155.443 15.34 154.797 14.812C154.152 14.284 153.206 14.02 151.96 14.02H148.616V20.158H151.96C153.206 20.158 154.152 19.894 154.797 19.366C155.443 18.8233 155.766 18.0607 155.766 17.078Z"
          fill="#0F292F"/>
    <path d="M20 27.5C18.5166 27.5 17.0666 27.0601 15.8332 26.236C14.5999 25.4119 13.6386 24.2406 13.0709 22.8701C12.5032 21.4997 12.3547 19.9917 12.6441 18.5368C12.9335 17.082 13.6478 15.7456 14.6967 14.6967C15.7456 13.6478 17.082 12.9335 18.5368 12.6441C19.9917 12.3547 21.4997 12.5032 22.8701 13.0709C24.2406 13.6386 25.4119 14.5999 26.236 15.8332C27.0601 17.0666 27.5 18.5166 27.5 20C27.5 21.9891 26.7098 23.8968 25.3033 25.3033C23.8968 26.7098 21.9891 27.5 20 27.5ZM20 15C19.0111 15 18.0444 15.2932 17.2222 15.8427C16.3999 16.3921 15.759 17.173 15.3806 18.0866C15.0022 19.0002 14.9032 20.0055 15.0961 20.9755C15.289 21.9454 15.7652 22.8363 16.4645 23.5355C17.1637 24.2348 18.0546 24.711 19.0246 24.9039C19.9945 25.0969 20.9998 24.9978 21.9134 24.6194C22.8271 24.241 23.6079 23.6001 24.1574 22.7779C24.7068 21.9556 25 20.9889 25 20C25 18.6739 24.4732 17.4022 23.5355 16.4645C22.5979 15.5268 21.3261 15 20 15Z"
          fill="#0F292F"/>
    <path d="M26.25 38.75H13.75C12.4239 38.75 11.1521 38.2232 10.2145 37.2855C9.27678 36.3479 8.75 35.0761 8.75 33.75V30.5625C8.75225 30.3143 8.82834 30.0724 8.96859 29.8676C9.10884 29.6627 9.30689 29.5043 9.5375 29.4125L14.0875 27.5875C14.2417 27.5191 14.4082 27.4827 14.5769 27.4803C14.7456 27.478 14.913 27.5099 15.0691 27.574C15.2251 27.6381 15.3666 27.7331 15.4849 27.8533C15.6033 27.9736 15.6961 28.1165 15.7577 28.2735C15.8194 28.4306 15.8486 28.5985 15.8436 28.7671C15.8386 28.9358 15.7995 29.1016 15.7287 29.2548C15.6579 29.4079 15.5569 29.5451 15.4316 29.6582C15.3064 29.7712 15.1596 29.8577 15 29.9125L11.25 31.4125V33.75C11.25 34.413 11.5134 35.0489 11.9822 35.5178C12.4511 35.9866 13.087 36.25 13.75 36.25H26.25C26.913 36.25 27.5489 35.9866 28.0178 35.5178C28.4866 35.0489 28.75 34.413 28.75 33.75V31.4125L25 29.9125C24.6917 29.7898 24.4447 29.5497 24.3135 29.245C24.1822 28.9402 24.1773 28.5958 24.3 28.2875C24.4227 27.9792 24.6628 27.7322 24.9675 27.6009C25.2723 27.4697 25.6167 27.4648 25.925 27.5875L30.475 29.4125C30.7056 29.5043 30.9037 29.6627 31.0439 29.8676C31.1842 30.0724 31.2603 30.3143 31.2625 30.5625V33.75C31.2625 34.4077 31.1328 35.0589 30.8807 35.6663C30.6287 36.2738 30.2592 36.8255 29.7936 37.29C29.328 37.7544 28.7753 38.1225 28.1673 38.373C27.5592 38.6235 26.9077 38.7516 26.25 38.75Z"
          fill="#0F292F"/>
    <path d="M11.25 13.75C10.0139 13.75 8.8055 13.3834 7.77769 12.6967C6.74988 12.0099 5.9488 11.0338 5.47576 9.89178C5.00271 8.74974 4.87894 7.49307 5.12009 6.28069C5.36125 5.06831 5.95651 3.95466 6.83059 3.08059C7.70466 2.20651 8.81831 1.61125 10.0307 1.37009C11.2431 1.12894 12.4997 1.25271 13.6418 1.72576C14.7838 2.1988 15.7599 2.99988 16.4467 4.02769C17.1334 5.0555 17.5 6.26387 17.5 7.5C17.5 8.32076 17.3383 9.13349 17.0243 9.89178C16.7102 10.6501 16.2498 11.3391 15.6694 11.9194C15.0891 12.4998 14.4001 12.9602 13.6418 13.2743C12.8835 13.5883 12.0708 13.75 11.25 13.75ZM11.25 3.75C10.5083 3.75 9.7833 3.96994 9.16661 4.38199C8.54993 4.79405 8.06928 5.37972 7.78545 6.06494C7.50163 6.75016 7.42736 7.50416 7.57206 8.23159C7.71675 8.95902 8.07391 9.62721 8.59835 10.1517C9.1228 10.6761 9.79099 11.0333 10.5184 11.1779C11.2458 11.3226 11.9998 11.2484 12.6851 10.9646C13.3703 10.6807 13.956 10.2001 14.368 9.58339C14.7801 8.96671 15 8.24168 15 7.5C15 6.50544 14.6049 5.55161 13.9017 4.84835C13.1984 4.14509 12.2446 3.75 11.25 3.75Z"
          fill="#0F292F"/>
    <path d="M10 24.2375H6.25C4.92392 24.2375 3.65215 23.7107 2.71447 22.773C1.77678 21.8354 1.25 20.5636 1.25 19.2375V17.05C1.24976 16.7997 1.32469 16.555 1.4651 16.3477C1.60551 16.1405 1.80492 15.9801 2.0375 15.8875L6.025 14.325C6.32868 14.2045 6.66748 14.2076 6.96886 14.3338C7.27025 14.4599 7.51026 14.6991 7.6375 15C7.69839 15.1527 7.72858 15.3158 7.72635 15.4801C7.72411 15.6445 7.6895 15.8067 7.62448 15.9577C7.55946 16.1086 7.46532 16.2452 7.34744 16.3597C7.22956 16.4743 7.09026 16.5644 6.9375 16.625L3.75 17.9V19.2375C3.75 19.9005 4.01339 20.5364 4.48223 21.0053C4.95107 21.4741 5.58696 21.7375 6.25 21.7375H10C10.3315 21.7375 10.6495 21.8692 10.8839 22.1036C11.1183 22.338 11.25 22.656 11.25 22.9875C11.25 23.319 11.1183 23.637 10.8839 23.8714C10.6495 24.1058 10.3315 24.2375 10 24.2375Z"
          fill="#0F292F"/>
    <path d="M28.75 13.75C27.5139 13.75 26.3055 13.3834 25.2777 12.6967C24.2499 12.0099 23.4488 11.0338 22.9758 9.89178C22.5027 8.74974 22.3789 7.49307 22.6201 6.28069C22.8613 5.06831 23.4565 3.95466 24.3306 3.08059C25.2047 2.20651 26.3183 1.61125 27.5307 1.37009C28.7431 1.12894 29.9997 1.25271 31.1418 1.72576C32.2838 2.1988 33.2599 2.99988 33.9467 4.02769C34.6334 5.0555 35 6.26387 35 7.5C35 9.15761 34.3415 10.7473 33.1694 11.9194C31.9973 13.0915 30.4076 13.75 28.75 13.75ZM28.75 3.75C28.0083 3.75 27.2833 3.96994 26.6666 4.38199C26.0499 4.79405 25.5693 5.37972 25.2855 6.06494C25.0016 6.75016 24.9274 7.50416 25.0721 8.23159C25.2168 8.95902 25.5739 9.62721 26.0984 10.1517C26.6228 10.6761 27.291 11.0333 28.0184 11.1779C28.7458 11.3226 29.4998 11.2484 30.1851 10.9646C30.8703 10.6807 31.456 10.2001 31.868 9.58339C32.2801 8.96671 32.5 8.24168 32.5 7.5C32.5 6.50544 32.1049 5.55161 31.4017 4.84835C30.6984 4.14509 29.7446 3.75 28.75 3.75Z"
          fill="#0F292F"/>
    <path d="M33.75 24.2375H30C29.6685 24.2375 29.3505 24.1058 29.1161 23.8714C28.8817 23.637 28.75 23.319 28.75 22.9875C28.75 22.656 28.8817 22.3381 29.1161 22.1036C29.3505 21.8692 29.6685 21.7375 30 21.7375H33.75C34.413 21.7375 35.0489 21.4741 35.5178 21.0053C35.9866 20.5364 36.25 19.9006 36.25 19.2375V17.9L33.0625 16.65C32.9097 16.5894 32.7704 16.4993 32.6526 16.3847C32.5347 16.2702 32.4405 16.1336 32.3755 15.9827C32.3105 15.8317 32.2759 15.6695 32.2737 15.5051C32.2714 15.3408 32.3016 15.1777 32.3625 15.025C32.4826 14.7173 32.7196 14.4696 33.0218 14.3361C33.3239 14.2026 33.6666 14.1941 33.975 14.3125L37.9625 15.875C38.1951 15.9676 38.3945 16.128 38.5349 16.3352C38.6753 16.5425 38.7502 16.7872 38.75 17.0375V19.225C38.7516 19.8827 38.6235 20.5342 38.373 21.1423C38.1225 21.7503 37.7544 22.303 37.29 22.7686C36.8255 23.2342 36.2738 23.6037 35.6663 23.8557C35.0589 24.1078 34.4077 24.2375 33.75 24.2375Z"
          fill="#0F292F"/>
</svg>
