<svg width="574" height="552" viewBox="0 0 574 552" fill="none" xmlns="http://www.w3.org/2000/svg">
    <path d="M550.999 275.98C550.95 338.581 529.571 399.296 490.388 448.106C451.206 496.916 396.561 530.905 335.471 544.465C274.38 558.025 210.494 550.346 154.353 522.695C98.2124 495.044 53.1712 449.072 26.6613 392.366V392.366C5.45961 346.742 -2.8456 296.18 2.64708 246.167C8.13976 196.155 27.2205 148.603 57.8184 108.672V108.672C66.8548 96.9106 76.8138 85.8886 87.6008 75.7104V75.7104C137.066 29.1568 202.005 2.56751 269.902 1.06713C337.8 -0.433245 403.849 23.2615 455.321 67.5846V67.5846C485.335 93.3736 509.424 125.347 525.938 161.316C542.452 197.284 551.001 236.399 550.999 275.98V275.98Z"
          fill="white" stroke="#0D19A3" stroke-miterlimit="10"/>
    <path d="M551 275.975C551.042 305.722 546.022 335.051 536.573 363.256C532.408 356.297 534.838 336.564 534.838 336.564C525.873 346.201 519.408 357.891 516.01 370.609C510.012 392.278 505.43 396.403 503.514 395.028C501.598 393.653 503.014 375.693 499.349 369.692C495.683 363.692 499.807 355.441 492.434 354.524C485.062 353.607 488.269 341.606 474.981 340.689C461.694 339.773 460.694 337.022 449.656 334.272C440.992 332.147 438.867 322.896 438.326 318.979C438.3 318.778 438.225 318.587 438.106 318.424C437.988 318.26 437.83 318.129 437.648 318.041C437.466 317.954 437.264 317.914 437.063 317.925C436.861 317.936 436.665 317.998 436.493 318.104C434.036 319.771 429.912 324.188 431.245 334.772C433.078 349.524 435.41 351.774 443.199 348.107C450.989 344.44 458.861 340.731 462.568 354.107C466.276 367.484 451.572 373.693 440.325 383.86C429.079 394.028 410.834 397.695 408.085 390.736C404.147 381.161 398.889 372.185 392.465 364.067C385.551 355.733 383.718 334.897 381.427 331.855C379.136 328.813 364.39 330.939 373.096 339.231C381.802 347.523 386.925 376.485 393.34 383.36C399.755 390.236 397.005 404.571 411.709 406.863C426.413 409.154 446.698 378.776 436.118 404.071C425.538 429.365 395.464 452.867 388.091 462.076C380.719 471.285 389.924 490.204 382.593 492.913C375.262 495.621 363.266 505.414 360.017 513.748C356.768 522.082 328.776 533.041 322.778 538.125C316.78 543.209 301.951 539.5 296.12 533.5C290.288 527.499 271.128 516.832 280.916 500.83C290.705 484.828 280.916 467.243 274.002 457.576C267.087 447.908 278.625 437.782 270.336 439.616C262.047 441.449 260.214 434.99 251.925 429.49C243.636 423.989 210.271 432.74 192.61 429.49C174.949 426.239 165.41 386.194 160.828 369.526C156.246 352.857 188.237 332.772 189.569 323.688C190.902 314.603 197.234 307.394 211.604 305.936C225.975 304.477 264.046 295.477 272.627 296.31C281.208 297.143 297.619 324.313 306.242 324.521C314.864 324.729 314.573 319.104 318.113 315.103C321.654 311.103 348.312 325.063 355.143 322.229C361.975 319.396 367.639 321.062 373.596 316.395C379.552 311.728 378.803 303.394 377.761 296.143C376.72 288.893 372.346 294.351 365.265 296.56C362.1 297.658 358.699 297.885 355.416 297.218C352.134 296.551 349.09 295.014 346.604 292.768C341.814 288.351 346.604 284.934 349.437 276.891C352.269 268.849 359.434 271.683 366.098 267.057C372.763 262.432 385.967 273.058 396.797 268.474C407.627 263.89 382.552 257.223 379.344 249.597C376.137 241.971 356.56 240.18 350.187 248.722C343.813 257.265 348.354 257.056 346.021 263.932C343.689 270.807 347.646 270.891 344.813 273.974C341.981 277.058 339.898 272.391 333.858 275.808C327.818 279.225 335.358 291.435 328.027 296.227C320.696 301.019 319.113 284.476 318.321 277.266C317.53 270.057 310.449 265.64 304.95 262.473C299.452 259.306 290.122 243.013 282.582 249.097C275.043 255.181 287.164 259.473 290.122 263.598C293.079 267.724 302.826 270.891 307.033 272.266C308.399 272.586 309.59 273.415 310.365 274.585C311.139 275.754 311.437 277.176 311.199 278.558C311.199 279.683 308.866 279.475 306.45 279.225C304.034 278.975 300.743 277.85 302.784 282.184C304.826 286.517 302.326 288.018 300.618 290.768C298.911 293.518 295.828 292.476 297.036 287.559C298.244 282.642 290.788 274.099 283.707 271.599C276.626 269.099 273.294 254.348 267.046 255.431C260.797 256.514 259.923 259.223 250.384 259.973C248.051 259.973 245.677 258.848 245.76 259.973C245.857 260.356 245.857 260.757 245.76 261.14C244.219 273.891 237.43 274.641 231.473 278.808C225.517 282.975 227.308 290.434 222.434 295.477C217.561 300.519 180.78 303.811 191.985 285.351C203.19 266.89 184.113 267.349 197.275 260.348C210.438 253.347 223.975 259.973 226.183 249.097C228.391 238.221 218.311 247.93 214.187 236.596C210.063 225.261 233.348 221.136 240.97 217.011C248.593 212.885 245.76 202.759 252.925 205.009C260.089 207.26 265.004 197.634 259.839 191.675C254.674 185.716 266.796 174.173 269.795 177.923C274.751 184.216 266.087 189.383 267.545 200.467C268.587 208.801 274.293 206.885 282.582 207.635C290.871 208.385 309.657 190.966 315.239 183.966C320.821 176.965 319.029 172.673 325.028 171.173C331.026 169.673 338.19 161.755 333.65 158.005C329.11 154.254 321.987 160.255 313.781 162.172C305.575 164.089 307.366 159.172 305.867 151.296C304.367 143.42 308.866 143.753 314.198 138.169C319.529 132.586 322.07 127.627 316.489 128.377C312.546 129.093 308.801 130.637 305.498 132.907C302.195 135.177 299.411 138.121 297.328 141.545C290.913 150.504 293.162 154.629 296.162 163.672C297.703 168.422 299.744 174.423 296.703 178.882C293.662 183.341 293.871 185.674 288.372 189.841C279.375 196.925 276.792 186.632 277.084 179.632C277.417 169.589 273.252 169.214 270.045 168.839C266.837 168.464 262.172 174.881 255.133 177.173C243.844 180.674 248.426 166.964 246.385 158.671C244.344 150.379 271.128 139.628 276.209 121.96C278.571 115.909 282.158 110.412 286.746 105.815C291.334 101.218 296.823 97.6206 302.868 95.2487C314.031 91.665 325.527 97.1238 333.442 98.1239C350.103 100.207 358.434 123.126 367.598 123.126C376.762 123.126 406.277 103.629 412.067 90.8779C416.233 81.5854 450.233 68.3063 455.173 67.4329C485.169 93.2683 509.624 125.224 526.095 161.229C542.567 197.235 551.062 236.378 551 275.975Z"
          fill="white" stroke="#0D19A3" stroke-miterlimit="10"/>
    <path d="M212.936 172.55C215.977 171.508 220.767 174.758 221.267 174.758C221.767 174.758 220.184 190.176 224.558 194.093C228.932 198.011 229.098 206.595 231.931 204.761C234.763 202.928 239.762 203.678 238.679 208.053C237.596 212.429 226.932 215.096 223.725 216.637C220.517 218.179 213.686 221.304 211.229 223.013C208.771 224.721 214.936 212.554 217.893 210.512C219.684 209.345 213.728 207.261 213.728 203.553C214 200.577 214.658 197.649 215.686 194.844C215.977 193.177 209.229 187.551 207.605 184.634C205.98 181.717 209.854 173.675 212.936 172.55Z"
          fill="white" stroke="#0D19A3" stroke-miterlimit="10"/>
    <path d="M201.649 194.76C202.898 193.802 204.731 192.01 206.606 192.76C208.48 193.51 209.271 196.927 209.105 198.844C208.938 200.761 206.772 202.344 206.772 204.594C206.772 206.845 208.605 211.803 205.689 212.637C202.773 213.47 197.65 213.554 196.567 215.554C195.484 217.554 192.402 218.054 191.902 215.97C191.533 214.885 191.455 213.721 191.674 212.596C191.893 211.47 192.403 210.421 193.151 209.553C195.068 207.636 193.401 207.011 192.735 204.178C192.433 203.226 192.398 202.211 192.633 201.241C192.868 200.271 193.364 199.384 194.068 198.677C195.234 197.344 195.901 201.177 197.733 199.844C198.868 198.024 200.179 196.321 201.649 194.76Z"
          fill="white" stroke="#0D19A3" stroke-miterlimit="10"/>
    <path d="M400.171 46.6996C400.171 46.6996 393.464 52.4085 390.882 52.1168C388.299 51.8251 383.176 57.284 383.176 60.1176C383.176 62.9512 383.426 69.9519 383.176 74.5773C382.926 79.2027 381.593 83.3698 387.008 84.6616C392.423 85.9534 402.003 90.8706 402.753 88.287C403.503 85.7034 392.381 81.0363 392.798 72.5354C393.214 64.0346 394.256 57.284 399.671 54.9921C405.086 52.7002 406.377 50.575 404.044 48.5331C401.712 46.4913 403.919 43.866 400.171 46.6996Z"
          fill="white" stroke="#0D19A3" stroke-miterlimit="10"/>
    <path d="M212.978 25.9924C207.396 35.91 188.277 48.9113 185.153 59.3289C182.029 69.7466 177.239 97.1659 160.161 107.75C143.083 118.335 110.426 129.461 102.97 144.962C95.5142 160.464 97.4303 174.132 91.8487 172.215C86.2671 170.298 68.8558 151.796 75.7286 131.919C82.6015 112.042 96.1807 111.084 95.5558 94.4157C95.0143 78.2891 88.0582 75.7889 87.2251 75.5805C115.33 49.1267 148.7 28.9062 185.153 16.2414C185.153 16.2414 218.56 16.0331 212.978 25.9924Z"
          fill="white" stroke="#0D19A3" stroke-miterlimit="10"/>
    <path d="M42.4058 189.755C42.4058 195.339 59.7754 206.424 51.7362 217.3C43.6971 228.176 26.744 220.758 24.453 233.176C22.162 245.594 28.6184 254.303 21.329 259.262C14.2616 264.452 7.47623 270.016 1.00192 275.93C0.892067 215.379 20.8754 156.504 57.8177 108.539V108.539L59.0673 107.997C59.0673 107.997 61.6499 125.291 61.6499 127.749C61.6499 130.208 56.0682 152.752 52.3611 156.294C48.6539 159.836 32.1173 165.836 32.1173 172.545C32.1173 179.254 43.2389 167.712 43.9053 172.545C44.5718 177.379 42.4058 184.172 42.4058 189.755Z"
          fill="white" stroke="#0D19A3" stroke-miterlimit="10"/>
    <path d="M157.371 129.791C155.996 133.333 159.37 139.083 157.371 141.625C155.372 144.167 156.829 145.792 162.786 145.375C168.742 144.959 168.201 151.459 171.575 148.917C174.921 146.096 178.028 143.002 180.864 139.667C185.279 135.041 188.986 127.749 184.238 126.749C179.489 125.748 175.449 128.29 171.492 128.29C167.534 128.29 162.244 125.582 160.37 126.499C159.09 127.303 158.054 128.441 157.371 129.791Z"
          fill="white" stroke="#0D19A3" stroke-miterlimit="10"/>
    <path d="M110.135 478.458C112.084 483.926 112.302 489.863 110.759 495.459H110.385C74.4925 468.437 45.7498 433.045 26.6604 392.366V392.366C26.6269 391.083 26.3291 389.82 25.7857 388.657C25.6531 388.492 25.5918 388.28 25.6152 388.069C25.6387 387.858 25.7449 387.665 25.9107 387.532C26.0764 387.4 26.2879 387.338 26.4989 387.362C26.7098 387.385 26.9027 387.491 27.0353 387.657C32.7029 393.605 38.7558 399.173 45.1547 404.326C53.2356 410.284 63.0242 411.91 66.8147 425.411C70.6052 438.912 73.271 435.704 84.101 438.412C94.931 441.121 117.174 445.454 117.174 457.914C117.174 470.374 107.094 468.707 110.135 478.458Z"
          fill="white" stroke="#0D19A3" stroke-miterlimit="10"/>
    <path d="M395.046 488.496C395.046 488.496 412.583 482.954 414.457 478.62C416.332 474.287 420.247 477.787 416.706 483.538C412.228 489.451 407.192 494.921 401.669 499.872C401.669 499.872 393.63 512.04 388.882 510.79C384.133 509.54 391.756 502.748 392.589 496.955C393.422 491.163 391.964 491.622 395.046 488.496Z"
          fill="white" stroke="#0D19A3" stroke-miterlimit="10"/>
    <path fill-rule="evenodd" clip-rule="evenodd"
          d="M405.448 214.169C404.947 214.169 404.453 214.282 404.001 214.499C403.549 214.716 403.152 215.032 402.839 215.424C402.525 215.816 402.304 216.273 402.191 216.762C402.078 217.251 402.076 217.759 402.186 218.248C402.186 218.248 402.186 218.248 402.186 218.248L407.158 240.428C407.324 241.171 407.738 241.834 408.332 242.31C408.925 242.785 409.663 243.045 410.423 243.045H433.238C433.698 243.045 434.07 243.418 434.07 243.877C434.07 244.337 433.698 244.71 433.238 244.71H410.422C409.284 244.709 408.179 244.321 407.291 243.609C406.402 242.897 405.783 241.904 405.533 240.793L400.561 218.612C400.397 217.879 400.4 217.119 400.569 216.387C400.738 215.655 401.069 214.971 401.539 214.384C402.008 213.798 402.603 213.324 403.28 212.999C403.956 212.674 404.698 212.505 405.449 212.505C405.908 212.505 406.281 212.877 406.281 213.337C406.281 213.797 405.908 214.169 405.448 214.169Z"
          fill="#6562CF"/>
    <path fill-rule="evenodd" clip-rule="evenodd"
          d="M447.531 214.169C447.03 214.169 446.536 214.282 446.084 214.499C445.632 214.716 445.235 215.032 444.922 215.424C444.608 215.816 444.387 216.273 444.274 216.762C444.161 217.251 444.159 217.759 444.269 218.248M444.269 218.248L449.241 240.428C449.241 240.428 449.24 240.428 449.241 240.428C449.407 241.17 449.821 241.834 450.415 242.31C451.008 242.785 451.746 243.045 452.506 243.045H475.321C475.781 243.045 476.153 243.418 476.153 243.877C476.153 244.337 475.781 244.71 475.321 244.71H452.505C451.367 244.709 450.262 244.321 449.374 243.609C448.485 242.897 447.866 241.904 447.616 240.793L442.644 218.612C442.48 217.879 442.483 217.119 442.652 216.387C442.821 215.655 443.152 214.971 443.622 214.384C444.091 213.798 444.686 213.324 445.363 212.999C446.039 212.674 446.781 212.505 447.532 212.505C447.991 212.505 448.364 212.877 448.364 213.337C448.364 213.797 447.991 214.169 447.531 214.169"
          fill="#6562CF"/>
    <path d="M450.349 221.162H411.629C410.22 221.162 408.852 220.685 407.749 219.808C406.645 218.931 405.87 217.706 405.551 216.333L399.971 192.349C399.789 191.568 399.786 190.755 399.962 189.972C400.138 189.189 400.489 188.456 400.987 187.827C401.486 187.199 402.12 186.691 402.842 186.342C403.564 185.993 404.356 185.812 405.158 185.812H443.879C445.288 185.812 446.656 186.289 447.759 187.166C448.862 188.043 449.637 189.268 449.956 190.642L455.536 214.63C455.716 215.411 455.718 216.223 455.542 217.006C455.366 217.788 455.015 218.52 454.517 219.148C454.018 219.776 453.384 220.283 452.663 220.632C451.941 220.981 451.15 221.162 450.349 221.162V221.162Z"
          fill="white"/>
    <path fill-rule="evenodd" clip-rule="evenodd"
          d="M405.157 186.644C404.481 186.644 403.813 186.797 403.204 187.091C402.595 187.386 402.06 187.814 401.639 188.344C401.218 188.875 400.923 189.493 400.774 190.154C400.626 190.815 400.628 191.501 400.782 192.161C400.782 192.161 400.782 192.161 400.782 192.161L406.361 216.144C406.638 217.335 407.31 218.396 408.266 219.156C409.223 219.916 410.408 220.33 411.629 220.33H450.349C451.025 220.33 451.692 220.177 452.3 219.882C452.909 219.588 453.444 219.16 453.864 218.63C454.285 218.101 454.581 217.483 454.73 216.822C454.879 216.162 454.877 215.477 454.725 214.818C454.725 214.818 454.725 214.818 454.724 214.817L449.145 190.83C448.868 189.64 448.197 188.578 447.241 187.818C446.285 187.058 445.1 186.644 443.879 186.644H405.157ZM450.349 221.995H411.629C410.032 221.995 408.482 221.454 407.231 220.46C405.98 219.466 405.102 218.078 404.74 216.521L399.16 192.538C398.95 191.634 398.947 190.695 399.15 189.789C399.353 188.884 399.758 188.036 400.335 187.31C400.912 186.583 401.645 185.996 402.48 185.592C403.315 185.189 404.23 184.979 405.158 184.979C405.158 184.979 405.157 184.979 405.158 184.979H443.879C445.476 184.979 447.026 185.521 448.277 186.515C449.527 187.508 450.405 188.897 450.767 190.453C450.767 190.453 450.766 190.453 450.767 190.453L456.346 214.442C456.555 215.346 456.558 216.284 456.354 217.189C456.15 218.093 455.745 218.94 455.168 219.666C454.592 220.392 453.859 220.978 453.025 221.381C452.191 221.785 451.276 221.994 450.349 221.995Z"
          fill="#6562CF"/>
    <path d="M476.491 238.345H414.391C412.865 238.345 411.627 239.583 411.627 241.111C411.627 242.639 412.865 243.877 414.391 243.877H476.491C478.017 243.877 479.255 242.639 479.255 241.111C479.255 239.583 478.017 238.345 476.491 238.345Z"
          fill="#EAEEFF"/>
    <path fill-rule="evenodd" clip-rule="evenodd"
          d="M414.392 239.177C413.326 239.177 412.46 240.042 412.46 241.111C412.46 242.18 413.326 243.045 414.392 243.045H476.491C477.557 243.045 478.423 242.18 478.423 241.111C478.423 240.042 477.557 239.177 476.491 239.177H414.392ZM410.795 241.111C410.795 239.124 412.405 237.513 414.392 237.513H476.491C478.478 237.513 480.087 239.124 480.087 241.111C480.087 243.098 478.478 244.71 476.491 244.71H414.392C412.405 244.71 410.795 243.098 410.795 241.111Z"
          fill="#6562CF"/>
    <path fill-rule="evenodd" clip-rule="evenodd"
          d="M420.124 244.71C417.721 244.71 415.679 246.693 415.551 249.301L415.549 249.336L407.835 306.877C407.774 307.332 407.355 307.652 406.899 307.591C406.443 307.53 406.124 307.111 406.185 306.656L413.89 249.183C414.075 245.775 416.777 243.045 420.124 243.045H433.447C436.794 243.045 439.496 245.775 439.683 249.183L447.388 306.656C447.449 307.111 447.129 307.53 446.674 307.591C446.218 307.652 445.799 307.332 445.738 306.877L438.024 249.336L438.022 249.301C437.893 246.693 435.85 244.71 433.447 244.71H420.124Z"
          fill="#6562CF"/>
    <path fill-rule="evenodd" clip-rule="evenodd"
          d="M455.144 243.877C455.144 243.418 455.516 243.045 455.976 243.045H468.913C472.197 243.045 474.811 245.797 474.991 249.184L482.615 306.657C482.675 307.112 482.355 307.531 481.899 307.591C481.443 307.652 481.025 307.331 480.965 306.876L473.331 249.335L473.33 249.3C473.204 246.67 471.21 244.71 468.913 244.71H455.976C455.516 244.71 455.144 244.337 455.144 243.877Z"
          fill="#6562CF"/>
    <path d="M517.024 186.893C517.864 187.448 519.812 191.578 519.848 192.076C519.884 192.574 517.647 196.272 517.647 196.272C517.647 196.272 516.758 196.291 516.589 194.257C516.382 191.848 515.326 190.936 513.796 190.593C513.156 190.45 511.979 190.938 511.896 191.881C511.813 192.824 514.247 193.45 514.736 194.023C515.479 194.888 515.061 196.107 515.061 196.137C515.061 196.137 511.305 194.998 510.583 194.787C509.933 194.593 507.032 191.953 505.221 189.334C504.548 189.828 503.842 190.276 503.109 190.676C498.56 193.125 482.961 198.822 474.881 197.53C466.767 196.229 473.248 170.373 473.248 170.373C484.999 170.916 489.919 169.418 490.816 169.101L488.991 181.054C493.929 180.907 506.079 182.922 506.086 182.924C509.5 183.373 515.817 186.098 517.024 186.893Z"
          fill="#F1921B"/>
    <path d="M473.191 170.361H473.261C485.012 170.904 489.932 169.407 490.829 169.089L490.398 172.017C490.398 172.017 481.681 176.124 471.985 175.757L473.191 170.361Z"
          fill="#EB7200"/>
    <path d="M474.369 203.045C477.161 202.84 482.22 170.329 482.22 170.329C488.452 170.42 495.986 167.51 495.986 167.51C495.986 167.51 490.834 150.611 489.058 147.126C487.282 143.641 474.533 137.616 473.029 137.18L448.179 131.488C448.179 131.488 426.966 136.762 420.277 142.174C413.587 147.586 408.36 170.415 408.36 170.415C420.646 175.373 433.383 174.643 433.383 174.643L429.053 200.765C427.65 207.107 423.171 227.243 431.069 237.02C431.069 237.02 437.424 205.761 474.369 203.045Z"
          fill="#E7E8F6"/>
    <path d="M458.038 139.852L450.606 144.391L441.182 133.423L448.256 129.182C448.462 129.059 448.691 128.979 448.928 128.945C449.166 128.911 449.408 128.925 449.64 128.985C449.872 129.046 450.09 129.152 450.281 129.297C450.472 129.443 450.632 129.625 450.752 129.833L458.038 139.852Z"
          fill="#DBDAFF"/>
    <path d="M469.34 140.893L474.571 143.982L474.319 137.702L473.029 137.18C473.029 137.18 470.731 138.722 469.34 140.893Z"
          fill="#DBDAFF"/>
    <path fill-rule="evenodd" clip-rule="evenodd"
          d="M435.59 167.89C435.213 170.29 434.702 173.167 434.179 174.883L432.586 174.397C433.07 172.81 433.567 170.046 433.945 167.632C434.133 166.434 434.29 165.339 434.4 164.543C434.454 164.145 434.498 163.823 434.527 163.599C434.542 163.488 434.553 163.401 434.56 163.343L434.572 163.255L435.397 163.359C436.223 163.463 436.223 163.463 436.223 163.463L436.211 163.555C436.204 163.615 436.192 163.703 436.177 163.816C436.148 164.043 436.104 164.369 436.049 164.77C435.938 165.574 435.78 166.679 435.59 167.89Z"
          fill="#C7BFFF"/>
    <path fill-rule="evenodd" clip-rule="evenodd"
          d="M458.536 139.593L457.898 140.128C458.536 139.593 458.536 139.593 458.536 139.593L458.616 139.688C458.667 139.75 458.743 139.841 458.839 139.957C459.032 140.189 459.307 140.521 459.638 140.925C460.3 141.732 461.184 142.824 462.076 143.963C462.967 145.1 463.871 146.292 464.568 147.298C464.916 147.8 465.22 148.267 465.447 148.664C465.561 148.863 465.661 149.055 465.739 149.232C465.812 149.397 465.887 149.6 465.915 149.806C465.97 150.22 466.031 151.474 466.092 153.048C466.154 154.65 466.218 156.647 466.276 158.596C466.334 160.546 466.386 162.449 466.424 163.866C466.44 164.481 466.454 165.005 466.464 165.4H469.34V167.065H465.652C465.2 167.065 464.831 166.704 464.82 166.253L465.652 166.232C464.82 166.253 464.82 166.253 464.82 166.253L464.804 165.612C464.793 165.203 464.778 164.617 464.76 163.91C464.722 162.495 464.67 160.593 464.612 158.646C464.554 156.698 464.49 154.707 464.428 153.113C464.365 151.491 464.307 150.341 464.265 150.027C464.265 150.032 464.266 150.034 464.266 150.034C464.265 150.034 464.256 149.994 464.215 149.901C464.169 149.796 464.099 149.659 464.002 149.491C463.809 149.153 463.535 148.731 463.2 148.246C462.53 147.28 461.649 146.117 460.766 144.989C459.884 143.863 459.007 142.781 458.351 141.98C458.101 141.676 457.884 141.412 457.71 141.203L451.026 145.109L450.186 143.672L457.478 139.41C457.828 139.205 458.275 139.282 458.536 139.593Z"
          fill="#C7BFFF"/>
    <path fill-rule="evenodd" clip-rule="evenodd"
          d="M468.775 140.724C469.012 140.349 469.502 140.226 469.889 140.445L474.843 143.252L474.022 144.7L469.764 142.288C469.682 142.421 469.59 142.572 469.49 142.737C469.074 143.425 468.521 144.356 467.972 145.336C467.421 146.32 466.883 147.338 466.491 148.204C466.294 148.637 466.141 149.017 466.042 149.326C465.993 149.48 465.96 149.606 465.941 149.705C465.932 149.754 465.926 149.792 465.924 149.82C465.923 149.834 465.922 149.845 465.922 149.852C465.922 149.86 465.922 149.863 465.922 149.863L464.261 149.97C464.237 149.6 464.339 149.184 464.457 148.817C464.583 148.424 464.764 147.98 464.974 147.517C465.395 146.588 465.96 145.523 466.519 144.523C467.08 143.521 467.644 142.572 468.066 141.875C468.278 141.526 468.454 141.239 468.578 141.039C468.64 140.939 468.689 140.861 468.723 140.807L468.761 140.746L468.775 140.724C468.775 140.724 468.775 140.724 469.479 141.169L468.775 140.724Z"
          fill="#C7BFFF"/>
    <path fill-rule="evenodd" clip-rule="evenodd"
          d="M434.15 170.526C434.149 170.526 434.149 170.526 434.174 171.358C434.199 172.19 434.199 172.19 434.198 172.19L434.185 172.19L434.149 172.191C434.118 172.192 434.071 172.193 434.011 172.194C433.891 172.197 433.714 172.199 433.487 172.201C433.033 172.204 432.376 172.203 431.559 172.186C429.927 172.153 427.654 172.056 425.088 171.805C419.984 171.304 413.615 170.179 408.851 167.638L409.634 166.169C414.099 168.55 420.196 169.652 425.251 170.148C427.764 170.394 429.993 170.489 431.594 170.522C432.393 170.538 433.035 170.539 433.476 170.536C433.696 170.535 433.866 170.532 433.98 170.53C434.037 170.529 434.08 170.528 434.108 170.527L434.14 170.526L434.148 170.526L434.15 170.526Z"
          fill="#C7BFFF"/>
    <path d="M481.153 197.094C481.153 197.841 473.493 197.569 472.415 197.569C471.336 197.569 464.578 197.826 462.99 197.569C454.361 198.28 415.87 201.08 411.394 194.854C406.212 187.643 410.841 171.332 410.841 171.332C422.467 175.373 433.383 174.638 433.383 174.638L432.429 180.832C441.656 181.971 458.308 187.825 463.969 189.876C465.182 189.487 469.803 188.087 472.143 188.62C474.85 189.23 478.101 191.669 478.439 192.348C478.777 193.026 481.153 196.35 481.153 197.094Z"
          fill="#F1921B"/>
    <path d="M472.41 197.569C473.488 197.569 481.148 197.841 481.148 197.096C481.148 196.351 478.777 193.031 478.439 192.352C478.101 191.674 474.852 189.235 472.143 188.625C472.143 188.625 475.485 193.271 472.41 197.569"
          fill="#EB7200"/>
    <path d="M410.835 171.337C410.835 171.337 422.733 175.526 433.383 174.64L432.429 180.832C432.429 180.832 418.218 178.556 410.331 173.404L410.835 171.337Z"
          fill="#EB7200"/>
    <path d="M513.778 307.352H487.467C487.441 306.95 487.431 306.566 487.439 306.197H513.812C513.841 306.582 513.829 306.969 513.778 307.352Z"
          fill="#3F4D79"/>
    <path d="M490.148 295.562C490.242 298.433 487.469 300.253 487.469 306.189H513.778C513.778 306.189 514.16 301.209 508.904 300.061C503.647 298.913 498.857 297.38 498.38 295.562H490.148Z"
          fill="#E4C580"/>
    <path fill-rule="evenodd" clip-rule="evenodd"
          d="M501.427 296.678C501.808 296.936 501.909 297.453 501.651 297.834L499.25 301.392C498.993 301.773 498.475 301.874 498.094 301.616C497.713 301.359 497.613 300.842 497.87 300.461L500.272 296.903C500.529 296.522 501.046 296.421 501.427 296.678Z"
          fill="#3F4D79"/>
    <path fill-rule="evenodd" clip-rule="evenodd"
          d="M503.165 297.406C503.543 297.667 503.638 298.185 503.377 298.563L501.118 301.832C500.857 302.21 500.339 302.305 499.96 302.044C499.582 301.782 499.487 301.264 499.749 300.886L502.007 297.617C502.269 297.239 502.787 297.144 503.165 297.406Z"
          fill="#3F4D79"/>
    <path fill-rule="evenodd" clip-rule="evenodd"
          d="M505.144 297.813C505.536 298.053 505.659 298.566 505.419 298.958L503.593 301.939C503.353 302.331 502.84 302.454 502.448 302.214C502.056 301.973 501.933 301.461 502.174 301.069L504 298.088C504.24 297.696 504.752 297.573 505.144 297.813Z"
          fill="#3F4D79"/>
    <path d="M461.852 205.346C461.852 205.346 502.009 202.832 511.767 214.323C521.526 225.813 502.584 266.794 500.67 291.69C500.67 291.69 491.06 292.647 487.159 291.69C483.258 290.732 479.862 248.169 489.692 236.486C489.692 236.486 452.321 245.09 437.748 234.239C423.175 223.387 455.79 205.551 461.852 205.346Z"
          fill="#0D19A3"/>
    <path d="M498.376 295.562C495.708 296.464 492.817 296.464 490.149 295.562L489.371 292.01C489.371 292.01 494.483 292.268 499.153 291.821L498.376 295.562Z"
          fill="#F1921B"/>
    <path d="M573.234 267.477L552.363 283.51C552.067 283.149 551.8 282.796 551.562 282.451L572.35 266.482C572.681 266.779 572.978 267.113 573.234 267.477V267.477Z"
          fill="#3F4D79"/>
    <path d="M547.158 272.435C548.981 274.657 547.886 277.79 551.498 282.5L572.369 266.467C572.369 266.467 569.643 262.284 564.77 264.579C559.897 266.874 555.17 268.575 553.684 267.422L547.158 272.435Z"
          fill="#E4C580"/>
    <path fill-rule="evenodd" clip-rule="evenodd"
          d="M556.839 266.336C557.298 266.307 557.693 266.656 557.721 267.115L557.98 271.26C558.008 271.719 557.659 272.114 557.201 272.142C556.742 272.171 556.347 271.822 556.318 271.363L556.06 267.218C556.031 266.759 556.38 266.364 556.839 266.336Z"
          fill="#3F4D79"/>
    <path fill-rule="evenodd" clip-rule="evenodd"
          d="M558.419 265.759C558.878 265.727 559.275 266.073 559.307 266.531L559.566 270.244C559.598 270.702 559.252 271.1 558.793 271.132C558.334 271.164 557.937 270.818 557.905 270.359L557.647 266.647C557.615 266.188 557.961 265.791 558.419 265.759Z"
          fill="#3F4D79"/>
    <path fill-rule="evenodd" clip-rule="evenodd"
          d="M559.998 265.182C560.456 265.146 560.857 265.488 560.893 265.946L561.151 269.226C561.187 269.685 560.845 270.086 560.387 270.122C559.928 270.158 559.528 269.815 559.491 269.357L559.233 266.077C559.197 265.619 559.539 265.218 559.998 265.182Z"
          fill="#3F4D79"/>
    <path d="M431.068 235.393C431.67 238.636 465.84 246.494 502.2 223.522C502.2 223.522 504.59 251.233 541.33 271.333C541.33 271.333 549.324 268.445 552.916 262.097C552.916 262.097 528.95 234.047 519.723 208.288C515.849 197.472 467.096 203.134 459.968 205.346C452.84 207.557 428.389 220.941 431.068 235.393Z"
          fill="#0D19A3"/>
    <path d="M553.683 267.422C553.683 267.422 552.109 272.274 547.158 272.435L543.931 270.146C546.849 268.653 549.444 266.599 551.568 264.101L553.683 267.422Z"
          fill="#F1921B"/>
    <path d="M462.468 122.549C462.468 122.549 460.948 126.546 451.094 130.355C451.094 130.355 458.029 139.855 465.082 148.781C465.082 148.781 467.909 140.58 473.019 137.183L462.468 122.549Z"
          fill="#F1921B"/>
    <path d="M473.029 137.18C471.523 138.209 470.254 139.6 469.204 141.083C465.955 138.644 462.3 134.362 461.218 131.256C460.684 129.719 462.099 125.564 462.919 123.164L473.029 137.18Z"
          fill="#EB7200"/>
    <path d="M462.269 123.329C462.269 124.63 461.14 128.636 462.507 130.242C465.006 133.181 472.165 137.886 475.686 137.689C478.194 137.554 481.748 126.662 482.278 125.034C482.807 123.406 485.095 116.878 483.47 115.133C481.845 113.388 468.263 109.57 465.565 115.193C462.573 121.427 462.269 123.329 462.269 123.329Z"
          fill="#F1921B"/>
    <path d="M489.058 111.348C487.724 120.082 482.04 121.224 470.843 114.663C465.714 111.66 469.34 117.039 466.456 121.71L465.514 122.061C465.545 121.591 465.611 119.649 464.646 119.644C463.224 119.644 462.787 121.798 462.651 123.126L462.105 123.329C462.105 123.329 462.046 113.593 463.426 110.499C466.838 102.838 476.701 106.976 479.12 108.279C486.754 112.385 489.058 111.348 489.058 111.348Z"
          fill="#FFB000"/>
    <path fill-rule="evenodd" clip-rule="evenodd"
          d="M480.921 120.43C477.837 119.701 474.193 117.689 470.179 114.517L471.004 113.472C474.951 116.591 478.416 118.47 481.227 119.134C484.015 119.793 486.064 119.247 487.406 117.65L488.425 118.507C486.661 120.607 484.028 121.165 480.921 120.43Z"
          fill="#FFB000"/>
    <path d="M463.952 116.856L463.936 116.852C462.03 116.309 460.046 117.415 459.504 119.323L459.062 120.878C458.52 122.785 459.625 124.771 461.531 125.314L461.546 125.318C463.452 125.861 465.437 124.754 465.979 122.847L466.421 121.292C466.963 119.385 465.857 117.399 463.952 116.856Z"
          fill="white"/>
    <path fill-rule="evenodd" clip-rule="evenodd"
          d="M463.708 117.652C462.245 117.236 460.721 118.085 460.304 119.551L459.862 121.106C459.445 122.571 460.295 124.096 461.758 124.513L461.774 124.518C463.237 124.934 464.761 124.085 465.178 122.619L465.62 121.064C466.037 119.599 465.187 118.073 463.724 117.657L463.708 117.652ZM458.703 119.095C459.371 116.746 461.815 115.382 464.163 116.051L464.179 116.055C466.527 116.724 467.889 119.171 467.221 121.52L466.779 123.075C466.111 125.424 463.667 126.787 461.319 126.119L461.303 126.114C458.955 125.446 457.593 122.999 458.261 120.65L458.703 119.095Z"
          fill="#3F4D79"/>
    <path d="M466.553 120.825L465.841 123.329C465.616 124.12 465.087 124.788 464.37 125.188C463.652 125.588 462.806 125.686 462.016 125.461L461.054 125.187C461.012 125.175 460.971 125.162 460.929 125.148C461.706 125.336 462.525 125.215 463.214 124.812C463.904 124.408 464.411 123.753 464.627 122.983L465.339 120.479C465.559 119.71 465.473 118.887 465.099 118.18C464.725 117.474 464.093 116.94 463.334 116.691L463.461 116.724L464.418 116.994C464.81 117.104 465.177 117.29 465.497 117.542C465.817 117.795 466.084 118.108 466.283 118.464C466.481 118.821 466.607 119.212 466.653 119.618C466.7 120.023 466.666 120.433 466.553 120.825V120.825Z"
          fill="white"/>
    <path fill-rule="evenodd" clip-rule="evenodd"
          d="M463.074 117.482L463.541 115.885L463.677 115.92L464.642 116.192C464.642 116.192 464.643 116.192 464.643 116.192C465.141 116.332 465.606 116.569 466.012 116.889C466.419 117.209 466.758 117.607 467.01 118.059C467.262 118.511 467.422 119.009 467.48 119.523C467.539 120.037 467.496 120.557 467.353 121.054C467.353 121.054 467.353 121.055 467.353 121.055L466.642 123.557C466.356 124.559 465.685 125.408 464.775 125.915C463.865 126.422 462.791 126.547 461.789 126.262L460.831 125.988C460.767 125.971 460.709 125.952 460.657 125.934L461.125 124.339C461.692 124.476 462.29 124.388 462.794 124.093C463.298 123.799 463.668 123.32 463.826 122.757L463.827 122.756L464.538 120.251L464.539 120.249C464.7 119.688 464.637 119.086 464.364 118.57C464.091 118.054 463.628 117.664 463.074 117.482ZM466.139 120.708L466.553 120.825L466.14 120.706C466.14 120.706 466.139 120.707 466.139 120.708C466.139 120.708 466.139 120.707 466.139 120.708Z"
          fill="#3F4D79"/>
    <path fill-rule="evenodd" clip-rule="evenodd"
          d="M470.59 104.77C470.242 104.671 469.878 104.641 469.519 104.683C469.16 104.725 468.812 104.837 468.496 105.013C468.18 105.19 467.901 105.427 467.677 105.711C467.452 105.995 467.285 106.32 467.186 106.669L464.262 116.947C464.136 117.389 463.675 117.645 463.233 117.519C462.791 117.394 462.535 116.933 462.66 116.491L465.585 106.214C465.744 105.655 466.011 105.133 466.371 104.678C466.731 104.222 467.178 103.842 467.685 103.559C468.192 103.277 468.75 103.097 469.327 103.03C469.903 102.963 470.488 103.01 471.046 103.169M471.046 103.169L481.445 106.128C481.445 106.128 481.445 106.128 481.445 106.128C482.252 106.358 482.923 106.819 483.314 107.508C483.706 108.2 483.754 109.014 483.522 109.829C483.396 110.271 482.936 110.527 482.494 110.402C482.052 110.276 481.795 109.815 481.921 109.373C482.056 108.898 481.996 108.559 481.866 108.329C481.734 108.097 481.469 107.866 480.99 107.73L470.59 104.77"
          fill="#3F4D79"/>
    <path d="M512.043 197.979H466.452C464.371 197.979 463.051 195.896 464.056 194.195L479.492 168.067C480.834 165.79 483.391 164.382 486.179 164.382H531.772C533.854 164.382 535.173 166.465 534.169 168.166L518.733 194.294C517.386 196.568 514.825 197.979 512.043 197.979Z"
          fill="#EAEEFF"/>
    <path d="M511.597 198.818H467.877C465.838 198.818 464.547 196.777 465.531 195.111L480.654 169.512C481.97 167.284 484.48 165.902 487.206 165.902H530.926C532.965 165.902 534.257 167.943 533.272 169.61L518.15 195.206C516.834 197.434 514.323 198.818 511.597 198.818Z"
          fill="var(--color-primary-light)"/>
    <path fill-rule="evenodd" clip-rule="evenodd"
          d="M486.18 165.214C483.666 165.214 481.391 166.483 480.209 168.489L480.208 168.49L464.773 194.618C464.773 194.618 464.773 194.618 464.773 194.618C464.148 195.677 464.912 197.147 466.452 197.147H512.044C514.55 197.147 516.829 195.875 518.017 193.87L533.452 167.743C533.452 167.743 533.452 167.742 533.452 167.742C534.077 166.683 533.313 165.214 531.772 165.214H486.18ZM478.775 167.644C480.276 165.096 483.117 163.549 486.18 163.549H531.772C534.394 163.549 536.269 166.246 534.886 168.589L534.886 168.589L519.45 194.718L519.449 194.718C517.943 197.26 515.101 198.811 512.044 198.811H466.452C463.831 198.811 461.956 196.115 463.339 193.772L463.339 193.772L478.775 167.644Z"
          fill="#6562CF"/>
    <path d="M512.658 198.013H429.406C428.529 198.013 427.817 198.725 427.817 199.604V199.955C427.817 200.833 428.529 201.545 429.406 201.545H512.658C513.536 201.545 514.247 200.833 514.247 199.955V199.604C514.247 198.725 513.536 198.013 512.658 198.013Z"
          fill="#D1D1FF"/>
    <path fill-rule="evenodd" clip-rule="evenodd"
          d="M429.406 199.012C429.081 199.012 428.816 199.276 428.816 199.604V199.955C428.816 200.282 429.081 200.547 429.406 200.547H512.658C512.983 200.547 513.248 200.282 513.248 199.955V199.604C513.248 199.276 512.983 199.012 512.658 199.012H429.406ZM426.818 199.604C426.818 198.174 427.976 197.014 429.406 197.014H512.658C514.088 197.014 515.246 198.174 515.246 199.604V199.955C515.246 201.384 514.088 202.544 512.658 202.544H429.406C427.976 202.544 426.818 201.384 426.818 199.955V199.604Z"
          fill="#6562CF"/>
    <path d="M289.522 354.731C289.522 355.377 289.266 355.997 288.81 356.454C288.354 356.911 287.736 357.168 287.091 357.168H249.305C248.66 357.168 248.042 356.911 247.586 356.454C247.13 355.997 246.874 355.377 246.874 354.731C246.874 354.085 247.13 353.465 247.586 353.008C248.042 352.551 248.66 352.295 249.305 352.295H287.091C287.736 352.295 288.354 352.551 288.81 353.008C289.266 353.465 289.522 354.085 289.522 354.731Z"
          fill="white"/>
    <path fill-rule="evenodd" clip-rule="evenodd"
          d="M249.305 353.082C248.87 353.082 248.452 353.256 248.144 353.565C247.835 353.874 247.662 354.293 247.662 354.731C247.662 355.169 247.835 355.589 248.144 355.898C248.452 356.207 248.87 356.38 249.305 356.38H287.091C287.526 356.38 287.944 356.207 288.252 355.898C288.561 355.589 288.734 355.169 288.734 354.731C288.734 354.293 288.561 353.874 288.252 353.565C287.944 353.256 287.526 353.082 287.091 353.082H249.305ZM247.029 352.452C247.632 351.847 248.451 351.507 249.305 351.507H287.091C287.945 351.507 288.764 351.847 289.368 352.452C289.971 353.057 290.31 353.877 290.31 354.731C290.31 355.586 289.971 356.406 289.368 357.01C288.764 357.615 287.945 357.955 287.091 357.955H249.305C248.451 357.955 247.632 357.615 247.029 357.01C246.425 356.406 246.086 355.586 246.086 354.731C246.086 353.877 246.425 353.057 247.029 352.452Z"
          fill="#E4C580"/>
    <path d="M276.007 361.093H261.784C261.328 361.093 260.89 360.911 260.567 360.588C260.245 360.264 260.063 359.825 260.063 359.368V357.168L277.727 357.168V359.369C277.727 359.826 277.545 360.264 277.223 360.588C276.9 360.911 276.463 361.092 276.007 361.093V361.093Z"
          fill="white"/>
    <path fill-rule="evenodd" clip-rule="evenodd"
          d="M261.785 360.305H276.007C276.254 360.305 276.49 360.207 276.665 360.031C276.84 359.856 276.939 359.618 276.939 359.369V357.955L260.851 357.955V359.368C260.851 359.617 260.95 359.856 261.125 360.031C261.3 360.207 261.538 360.305 261.785 360.305ZM276.008 361.88C276.673 361.88 277.311 361.615 277.781 361.144C278.251 360.673 278.514 360.035 278.515 359.37L278.515 356.38H259.276V359.368C259.276 360.034 259.54 360.673 260.01 361.144C260.48 361.615 261.119 361.88 261.785 361.88L276.008 361.88Z"
          fill="#E4C580"/>
    <path d="M267.032 390.949H270.753V361.093H267.032L267.032 390.949Z" fill="white"/>
    <path fill-rule="evenodd" clip-rule="evenodd"
          d="M271.541 391.737H266.245V360.305H271.541V391.737ZM269.966 390.161V361.88H267.82V390.161H269.966Z"
          fill="#E4C580"/>
    <path d="M266.786 398.651H271.003C271.824 398.651 272.49 397.983 272.49 397.159V392.44C272.49 391.616 271.824 390.949 271.003 390.949H266.786C265.964 390.949 265.298 391.616 265.298 392.44V397.159C265.298 397.983 265.964 398.651 266.786 398.651Z"
          fill="white"/>
    <path fill-rule="evenodd" clip-rule="evenodd"
          d="M271.002 397.863C271.388 397.863 271.703 397.55 271.703 397.159V392.44C271.703 392.05 271.388 391.737 271.002 391.737H266.786C266.4 391.737 266.085 392.05 266.085 392.44V397.159C266.085 397.55 266.4 397.863 266.786 397.863H271.002ZM273.278 397.159C273.278 398.416 272.261 399.438 271.002 399.438H266.786C265.527 399.438 264.51 398.416 264.51 397.159V392.44C264.51 391.183 265.527 390.161 266.786 390.161H271.002C272.261 390.161 273.278 391.183 273.278 392.44V397.159Z"
          fill="#E4C580"/>
    <path fill-rule="evenodd" clip-rule="evenodd"
          d="M253.895 400.126C255.341 398.677 257.302 397.863 259.347 397.863H278.439C280.485 397.863 282.446 398.677 283.891 400.126C285.337 401.575 286.149 403.539 286.149 405.587H284.573C284.573 403.956 283.927 402.392 282.776 401.239C281.626 400.086 280.066 399.438 278.439 399.438H259.347C257.721 399.438 256.161 400.086 255.011 401.239C253.86 402.392 253.213 403.956 253.213 405.587H251.638C251.638 403.539 252.45 401.575 253.895 400.126Z"
          fill="#0D19A3"/>
    <path d="M285.486 409.191C287.018 409.191 288.259 407.946 288.259 406.412C288.259 404.877 287.018 403.633 285.486 403.633C283.955 403.633 282.713 404.877 282.713 406.412C282.713 407.946 283.955 409.191 285.486 409.191Z"
          fill="white"/>
    <path fill-rule="evenodd" clip-rule="evenodd"
          d="M285.486 404.421C284.392 404.421 283.501 405.311 283.501 406.412C283.501 407.513 284.392 408.403 285.486 408.403C286.581 408.403 287.471 407.513 287.471 406.412C287.471 405.311 286.581 404.421 285.486 404.421ZM281.926 406.412C281.926 404.444 283.518 402.845 285.486 402.845C287.454 402.845 289.047 404.444 289.047 406.412C289.047 408.38 287.454 409.978 285.486 409.978C283.518 409.978 281.926 408.38 281.926 406.412Z"
          fill="#E4C580"/>
    <path d="M252.251 409.191C253.782 409.191 255.023 407.946 255.023 406.412C255.023 404.877 253.782 403.633 252.251 403.633C250.719 403.633 249.478 404.877 249.478 406.412C249.478 407.946 250.719 409.191 252.251 409.191Z"
          fill="white"/>
    <path fill-rule="evenodd" clip-rule="evenodd"
          d="M252.251 404.421C251.156 404.421 250.266 405.311 250.266 406.412C250.266 407.513 251.156 408.403 252.251 408.403C253.345 408.403 254.236 407.513 254.236 406.412C254.236 405.311 253.345 404.421 252.251 404.421ZM248.69 406.412C248.69 404.444 250.283 402.845 252.251 402.845C254.219 402.845 255.811 404.444 255.811 406.412C255.811 408.38 254.219 409.978 252.251 409.978C250.283 409.978 248.69 408.38 248.69 406.412Z"
          fill="#E4C580"/>
    <path d="M268.993 409.191C270.524 409.191 271.766 407.946 271.766 406.412C271.766 404.877 270.524 403.633 268.993 403.633C267.462 403.633 266.22 404.877 266.22 406.412C266.22 407.946 267.462 409.191 268.993 409.191Z"
          fill="white"/>
    <path fill-rule="evenodd" clip-rule="evenodd"
          d="M268.993 404.421C267.898 404.421 267.008 405.311 267.008 406.412C267.008 407.513 267.898 408.403 268.993 408.403C270.088 408.403 270.978 407.513 270.978 406.412C270.978 405.311 270.088 404.421 268.993 404.421ZM265.433 406.412C265.433 404.444 267.025 402.845 268.993 402.845C270.961 402.845 272.554 404.444 272.554 406.412C272.554 408.38 270.961 409.978 268.993 409.978C267.025 409.978 265.433 408.38 265.433 406.412Z"
          fill="#E4C580"/>
    <path d="M232.847 394.702C231.61 397.644 230.483 400.056 229.624 401.639C228.984 402.816 227.871 409.679 222.016 406.914C221.81 406.816 224.326 406.166 225.12 400.488C225.398 398.497 225.653 396.577 225.884 394.728C228.175 394.884 231.08 394.789 232.847 394.702Z"
          fill="#FFCFC9"/>
    <path d="M231.582 409.679C231.582 409.679 233.939 401.505 230.787 400.257C229.78 399.859 228.56 400.867 228.234 404.307C227.948 407.315 223.564 407.781 223.15 405.837C223.15 405.837 217.775 406.933 217.775 409.679H231.582Z"
          fill="#3F4D79"/>
    <path d="M234.439 394.61C234.439 394.61 227.928 395.076 224.503 394.588C224.503 394.588 219.957 347.059 220.637 342.169C221.455 336.286 240.997 331.072 251.099 329.419L252.961 320.972C252.961 320.972 266.629 320.728 274.347 320.728C274.347 320.728 282.613 335.469 281.762 345.215C280.911 354.96 263.088 352.748 239.285 352.748C239.285 352.748 246.542 367.429 234.439 394.61Z"
          fill="#0D19A3"/>
    <path d="M254.272 394.934C252.461 395.095 250.639 395.08 248.831 394.89C249.439 397.259 250 399.519 250.447 401.538C250.735 402.834 248.883 404.583 248.356 405.856L248.397 405.837C250.828 405.448 254.09 407.756 253.754 404.154C253.419 400.553 253.934 399.656 254.272 394.934Z"
          fill="#FFCFC9"/>
    <path d="M253.681 401.505C254.518 401.505 255.877 403.02 255.742 405.447C255.664 406.895 255.365 408.322 254.854 409.679H245.454C245.619 407.066 248.397 405.837 248.397 405.837C250.828 405.448 253.968 407.756 253.633 404.154L253.681 401.505Z"
          fill="#3F4D79"/>
    <path d="M261.04 333.987C261.04 333.987 240.323 337.739 237.97 343.958C235.616 350.177 246.594 394.606 246.594 394.606C252.959 395.581 256.224 394.606 256.224 394.606C262.844 364.18 255.088 354.088 255.088 354.088C270.515 353.431 280.251 354.898 281.763 345.222C282.245 342.149 278.798 330.397 261.04 333.987Z"
          fill="#0D19A3"/>
    <path fill-rule="evenodd" clip-rule="evenodd"
          d="M260.535 333.212C260.535 333.212 260.535 333.212 260.676 333.987L260.816 334.762L260.803 334.765L260.76 334.773C260.722 334.78 260.665 334.791 260.59 334.805C260.44 334.833 260.219 334.876 259.936 334.933C259.371 335.047 258.558 335.216 257.576 335.439C255.61 335.885 252.969 336.543 250.258 337.392C247.543 338.244 244.786 339.278 242.577 340.47C240.321 341.687 238.821 342.972 238.342 344.237C238.111 344.847 238.012 346.071 238.087 347.888C238.16 349.662 238.392 351.879 238.74 354.388C239.435 359.402 240.582 365.519 241.806 371.455C243.03 377.389 244.327 383.13 245.318 387.388C245.814 389.517 246.233 391.275 246.528 392.5C246.676 393.113 246.792 393.593 246.872 393.919C246.912 394.082 246.943 394.207 246.963 394.29L246.994 394.417C246.994 394.417 246.994 394.417 246.23 394.606C245.465 394.795 245.465 394.795 245.465 394.794L245.433 394.666C245.412 394.582 245.382 394.456 245.342 394.292C245.262 393.965 245.145 393.484 244.997 392.869C244.701 391.641 244.281 389.879 243.784 387.746C242.791 383.479 241.49 377.724 240.263 371.773C239.037 365.825 237.881 359.669 237.179 354.604C236.829 352.073 236.589 349.799 236.513 347.953C236.438 346.15 236.511 344.625 236.868 343.68C237.566 341.836 239.538 340.319 241.829 339.084C244.165 337.823 247.03 336.753 249.787 335.889C252.551 335.023 255.236 334.354 257.228 333.903C258.224 333.677 259.049 333.504 259.626 333.388C259.914 333.331 260.14 333.287 260.295 333.257C260.373 333.242 260.432 333.231 260.473 333.224L260.519 333.215L260.535 333.212Z"
          fill="white"/>
    <path d="M256.121 314.079C257.352 311.289 251.886 307.623 246.292 309.085C246.292 309.085 248.178 286.586 252.599 283.752C256.891 281.001 257.924 293.957 258.07 297.12C258.065 297.12 258.859 309.36 256.121 314.079Z"
          fill="#EAEEFF"/>
    <path d="M255.64 314.758C258.349 312.321 252.746 307.363 246.292 309.085C242.253 309.713 226.555 313.067 225.079 313.836C223.638 314.48 219.474 316.579 218.944 317.216C218.276 318.02 218.174 320.147 218.215 320.427C218.256 320.708 218.805 322.166 218.805 322.166C218.805 322.166 219.856 322.057 219.722 320.911C219.562 319.548 220.773 319.125 221.582 318.76C221.92 318.609 222.798 318.671 222.952 319.184C223.107 319.696 221.827 320.318 221.615 320.689C221.3 321.252 221.665 321.882 221.672 321.895C221.679 321.909 223.624 320.845 224 320.645C224.345 320.462 225.968 318.564 226.656 316.891C226.661 316.89 250.883 319.041 255.64 314.758Z"
          fill="#FFC0B7"/>
    <path d="M252.634 271.646C252.178 270.536 250.289 264.794 253.35 262.313C256.41 259.833 260.447 257.288 265.332 257.684C270.216 258.08 271.577 264.598 274.345 265.645C277.113 266.693 280.49 265.45 283.681 268.325C286.872 271.2 283.56 275.726 286.811 278.142C290.063 280.557 293.197 277.501 296.455 281.77C300.189 286.664 294.735 292.321 300.036 292.808C305.897 293.346 309.434 303.292 306.917 309.893H276.384C256.888 306.875 252.634 271.646 252.634 271.646Z"
          fill="#FFB000"/>
    <path fill-rule="evenodd" clip-rule="evenodd"
          d="M266.029 258.596C261.386 258.369 258.12 260.02 255.261 262.559L254.215 261.381C257.307 258.635 260.961 256.771 266.106 257.023C268.873 257.158 270.75 258.782 272.213 260.333C272.534 260.673 272.842 261.018 273.134 261.345C273.177 261.392 273.219 261.439 273.26 261.486C273.594 261.858 273.906 262.204 274.214 262.515C274.841 263.149 275.38 263.566 275.904 263.749C276.505 263.959 277.168 264.051 277.919 264.101C278.253 264.124 278.593 264.138 278.95 264.153C278.995 264.155 279.039 264.156 279.084 264.158C279.486 264.175 279.906 264.194 280.334 264.228C282.062 264.367 283.956 264.76 285.777 266.333C287.68 267.978 287.723 270.261 287.757 272.09C287.757 272.132 287.758 272.175 287.759 272.217C287.797 274.207 287.879 275.618 289.176 276.538C290.381 277.393 291.481 277.387 292.839 277.38C293.08 277.379 293.328 277.377 293.586 277.381C294.421 277.392 295.339 277.464 296.288 277.854C297.246 278.247 298.176 278.937 299.095 280.091C301.14 282.658 300.906 285.42 300.738 287.398C300.728 287.522 300.718 287.642 300.708 287.759C300.667 288.27 300.641 288.702 300.659 289.077C300.676 289.451 300.734 289.713 300.826 289.901C300.964 290.182 301.286 290.524 302.477 290.596L302.477 290.596C305.769 290.798 308.423 292.985 309.842 296.153C311.26 299.321 311.472 303.504 309.939 307.89L308.452 307.37C309.87 303.314 309.637 299.552 308.404 296.797C307.17 294.042 304.966 292.327 302.381 292.169"
          fill="#FFB000"/>
    <path d="M252.869 320.887C252.869 320.887 251.138 306.748 250.222 306.007C248.167 304.343 246.532 301.957 247.389 298.661C247.875 296.801 251.783 284.47 252.616 283.687C253.448 282.904 258.913 280.946 258.913 280.946H274.351C276.108 281.533 281.627 283.523 282.946 285.547C289.389 295.434 291.449 311.293 291.449 311.293H283.438C283.438 311.293 279.583 302.621 278.211 302.522C276.84 302.423 274.272 320.765 274.272 320.765C274.272 320.765 265.489 323.207 252.869 320.887Z"
          fill="#E7E8F6"/>
    <path fill-rule="evenodd" clip-rule="evenodd"
          d="M247.908 298.738C247.163 301.6 248.65 303.819 250.596 305.395C250.816 305.573 250.938 305.834 251.003 305.981C251.084 306.168 251.161 306.393 251.232 306.636C251.377 307.126 251.525 307.765 251.672 308.488C251.967 309.937 252.272 311.79 252.546 313.607C252.82 315.427 253.066 317.223 253.243 318.563C253.331 319.233 253.403 319.79 253.452 320.179C253.477 320.373 253.496 320.526 253.509 320.63L253.529 320.79C253.529 320.79 253.529 320.791 252.747 320.887C251.965 320.982 251.965 320.982 251.965 320.982L251.945 320.825C251.933 320.722 251.914 320.57 251.889 320.377C251.84 319.99 251.769 319.436 251.681 318.769C251.505 317.435 251.261 315.649 250.988 313.842C250.715 312.032 250.415 310.211 250.128 308.802C249.984 308.095 249.847 307.507 249.721 307.082C249.658 306.868 249.603 306.713 249.559 306.612C249.551 306.592 249.543 306.577 249.537 306.565C247.398 304.809 245.423 302.032 246.383 298.341L247.908 298.738Z"
          fill="white"/>
    <path fill-rule="evenodd" clip-rule="evenodd"
          d="M262.997 282.299C262.998 282.299 262.998 282.299 263.696 282.664C264.394 283.029 264.394 283.029 264.394 283.028L264.394 283.029L264.391 283.034L264.378 283.059C264.367 283.082 264.348 283.118 264.324 283.168C264.276 283.267 264.204 283.419 264.111 283.623C263.927 284.031 263.662 284.649 263.348 285.472C262.721 287.12 261.898 289.594 261.127 292.873C259.587 299.431 258.257 309.212 259.133 322.051L257.561 322.158C256.674 309.154 258.019 299.215 259.594 292.513C260.381 289.162 261.225 286.621 261.876 284.912C262.201 284.057 262.479 283.41 262.676 282.974C262.775 282.756 262.853 282.59 262.908 282.477C262.936 282.421 262.957 282.378 262.972 282.348L262.99 282.314L262.995 282.304L262.997 282.301L262.997 282.299Z"
          fill="white"/>
    <path fill-rule="evenodd" clip-rule="evenodd"
          d="M262.846 293.085C262.765 293.085 262.696 293.151 262.696 293.237C262.696 293.322 262.765 293.388 262.846 293.388C262.927 293.388 262.996 293.322 262.996 293.237C262.996 293.151 262.927 293.085 262.846 293.085ZM261.121 293.237C261.121 292.285 261.892 291.51 262.846 291.51C263.8 291.51 264.571 292.285 264.571 293.237C264.571 294.189 263.8 294.964 262.846 294.964C261.892 294.964 261.121 294.189 261.121 293.237Z"
          fill="white"/>
    <path fill-rule="evenodd" clip-rule="evenodd"
          d="M261.561 299.973C261.48 299.973 261.412 300.039 261.412 300.125C261.412 300.21 261.48 300.276 261.561 300.276C261.642 300.276 261.711 300.21 261.711 300.125C261.711 300.039 261.642 299.973 261.561 299.973ZM259.836 300.125C259.836 299.172 260.607 298.398 261.561 298.398C262.515 298.398 263.286 299.172 263.286 300.125C263.286 301.077 262.515 301.851 261.561 301.851C260.607 301.851 259.836 301.077 259.836 300.125Z"
          fill="white"/>
    <path fill-rule="evenodd" clip-rule="evenodd"
          d="M260.874 306.885C260.793 306.885 260.725 306.951 260.725 307.037C260.725 307.122 260.793 307.188 260.874 307.188C260.955 307.188 261.024 307.122 261.024 307.037C261.024 306.951 260.955 306.885 260.874 306.885ZM259.149 307.037C259.149 306.085 259.92 305.31 260.874 305.31C261.829 305.31 262.599 306.085 262.599 307.037C262.599 307.989 261.829 308.764 260.874 308.764C259.92 308.764 259.149 307.989 259.149 307.037Z"
          fill="white"/>
    <path d="M290.56 315.149C286.594 319.328 260.95 313.739 260.95 313.739C260.95 313.739 259.613 315.857 258.047 315.932C256.481 316.008 254.999 315.453 254.204 316.126C253.409 316.798 252.607 317.969 251.985 318.09C251.246 318.241 250.487 318.273 249.738 318.185C250.004 317.45 250.31 316.73 250.655 316.028C250.182 316.412 249.595 317.116 249.251 317.41C249.108 317.543 248.924 317.625 248.729 317.641C248.534 317.657 248.339 317.607 248.176 317.499C248.176 317.499 249.203 315.927 249.608 315.507C250.013 315.087 251.254 314.032 251.942 313.792C252.755 313.443 257.517 311.106 259.893 310.718C262.413 310.309 282.821 308.932 282.821 308.932C290.202 308.927 293.891 311.64 290.56 315.149Z"
          fill="#FFCFC9"/>
    <path fill-rule="evenodd" clip-rule="evenodd"
          d="M255.302 313.531C255.555 313.987 255.391 314.562 254.935 314.816L254.259 315.192C253.881 315.402 253.403 315.667 252.98 315.901C252.971 315.909 252.96 315.921 252.945 315.937C252.887 316.002 252.809 316.097 252.715 316.224C252.528 316.476 252.311 316.8 252.101 317.13C251.893 317.457 251.698 317.778 251.556 318.018C251.484 318.138 251.426 318.237 251.386 318.305C251.366 318.339 251.351 318.366 251.34 318.384L251.329 318.404L251.325 318.41C251.065 318.863 250.488 319.019 250.035 318.76C249.582 318.5 249.426 317.922 249.686 317.469L250.442 317.903C249.686 317.469 249.686 317.469 249.686 317.469L249.691 317.461L249.704 317.438C249.715 317.418 249.732 317.389 249.753 317.353C249.796 317.28 249.857 317.176 249.931 317.051C250.08 316.801 250.285 316.463 250.506 316.115C250.726 315.769 250.971 315.401 251.198 315.095C251.312 314.943 251.43 314.793 251.547 314.665C251.644 314.558 251.809 314.388 252.015 314.274M255.302 313.531C255.048 313.075 254.472 312.91 254.016 313.164ZM254.016 313.164L254.471 313.982ZM254.016 313.164L254.471 313.982ZM254.016 313.164L254.015 313.165ZM254.015 313.165L254.013 313.166ZM254.013 313.166L254.003 313.171ZM254.003 313.171L253.966 313.192ZM253.966 313.192L253.826 313.27ZM253.826 313.27L253.341 313.539ZM253.341 313.539C252.949 313.757 252.449 314.034 252.016 314.274Z"
          fill="#FFB0AF"/>
    <path fill-rule="evenodd" clip-rule="evenodd"
          d="M256.149 313.94C256.403 314.396 256.239 314.972 255.783 315.226L255.323 314.4L254.863 313.574C255.32 313.32 255.895 313.484 256.149 313.94ZM253.811 316.319C254.238 316.083 254.724 315.814 255.106 315.601L255.783 315.226L255.323 314.4L254.863 313.574L254.188 313.949C253.797 314.166 253.297 314.443 252.863 314.683C252.68 314.784 252.528 314.925 252.429 315.026C252.316 315.14 252.203 315.271 252.097 315.402C251.883 315.666 251.658 315.978 251.459 316.267C251.257 316.56 251.073 316.841 250.94 317.049C250.873 317.153 250.818 317.239 250.78 317.3C250.761 317.33 250.747 317.354 250.736 317.371L250.724 317.39L250.72 317.397C250.72 317.397 250.72 317.397 251.524 317.893L250.72 317.397C250.446 317.842 250.584 318.424 251.028 318.698C251.472 318.972 252.055 318.834 252.329 318.39"
          fill="#FFB0AF"/>
    <path d="M265.164 271.455C265.164 271.455 267.312 278.205 274.345 280.946C274.345 280.946 264.48 285.254 258.907 280.946V271.65L265.164 271.455Z"
          fill="#FFCFC9"/>
    <path d="M260.332 281.824C259.83 281.581 259.354 281.287 258.912 280.946V271.65L265.164 271.455C265.164 271.455 265.225 271.645 265.359 271.975C265.997 274.824 264.271 280.736 260.332 281.824Z"
          fill="#FFC0B7"/>
    <path d="M265 272.494C264.935 274.714 260.767 279.935 258.488 279.935C256.599 279.935 253.072 274.225 252.627 271.651C252.172 269.003 252.634 264.305 256.402 264.239C258.731 264.199 259.927 266.392 260.626 268.934C261.477 272.003 264.088 271.315 264.088 271.315C264.088 271.315 264.836 269.609 265.877 270.462C266.919 271.315 265 272.494 265 272.494Z"
          fill="#FFCFC9"/>
    <path fill-rule="evenodd" clip-rule="evenodd"
          d="M210.527 336.68L205.235 409.736L203.664 409.622L209.742 325.707L211.313 325.708L217.391 409.799L215.82 409.913L210.527 336.68Z"
          fill="#E4C580"/>
    <path d="M203.916 325.764H283.942C284.442 325.764 284.922 325.566 285.276 325.211C285.629 324.857 285.828 324.377 285.829 323.876V323.876C285.829 323.375 285.63 322.894 285.276 322.539C284.923 322.185 284.443 321.985 283.942 321.985H203.916V325.764Z"
          fill="white"/>
    <path fill-rule="evenodd" clip-rule="evenodd"
          d="M203.916 321.198H283.942C284.652 321.198 285.333 321.48 285.834 321.983C286.335 322.485 286.617 323.166 286.617 323.876H285.829L286.617 323.877C286.616 324.586 286.334 325.267 285.833 325.768C285.332 326.27 284.652 326.552 283.942 326.552H203.916V324.977H283.942C284.233 324.977 284.512 324.861 284.718 324.655C284.925 324.448 285.041 324.168 285.041 323.875C285.041 323.583 284.925 323.302 284.719 323.096C284.513 322.889 284.233 322.773 283.942 322.773H203.916V321.198Z"
          fill="#E4C580"/>
    <path fill-rule="evenodd" clip-rule="evenodd"
          d="M203.32 293.145L235.615 293.145C236.371 293.145 237.108 293.377 237.728 293.81C238.347 294.243 238.819 294.857 239.08 295.567L247.66 318.926H209.171L200.951 296.548C200.811 296.166 200.765 295.755 200.817 295.351C200.869 294.947 201.017 294.562 201.25 294.228C201.482 293.894 201.792 293.621 202.152 293.432C202.513 293.244 202.914 293.145 203.32 293.145ZM203.32 293.775C203.015 293.775 202.715 293.849 202.445 293.991C202.174 294.132 201.942 294.337 201.767 294.588C201.593 294.839 201.481 295.128 201.442 295.432C201.403 295.735 201.437 296.044 201.542 296.331C201.542 296.331 201.542 296.331 201.542 296.331L209.611 318.296H246.757L238.488 295.784C238.272 295.195 237.88 294.686 237.367 294.327C236.853 293.967 236.241 293.775 235.615 293.775H203.32Z"
          fill="black"/>
    <path d="M235.905 293.46H203.492C201.993 293.46 200.952 295.052 201.47 296.554L208.521 317.07C208.661 317.511 208.936 317.897 209.307 318.173C209.677 318.45 210.125 318.603 210.587 318.611H246.846L238.997 295.762C238.52 294.378 237.286 293.46 235.905 293.46Z"
          fill="white"/>
    <path d="M234.568 294.996H202.155C201.807 294.996 201.465 295.08 201.158 295.241C200.85 295.401 200.586 295.634 200.387 295.92C200.189 296.205 200.062 296.534 200.018 296.879C199.973 297.224 200.013 297.575 200.133 297.901L207.183 317.164C207.339 317.588 207.62 317.954 207.99 318.213C208.359 318.472 208.799 318.611 209.25 318.611H245.509L237.66 297.157C237.427 296.523 237.006 295.976 236.453 295.59C235.9 295.203 235.242 294.996 234.568 294.996Z"
          fill="#E2E2FF"/>
    <path d="M209.315 318.611H271.172C272.035 318.611 272.862 318.954 273.472 319.565C274.081 320.177 274.424 321.005 274.424 321.87H212.567C211.705 321.87 210.878 321.526 210.268 320.915C209.658 320.304 209.315 319.475 209.315 318.611V318.611Z"
          fill="white"/>
    <path fill-rule="evenodd" clip-rule="evenodd"
          d="M209.316 318.611H208.37C208.37 319.725 208.812 320.794 209.599 321.583C210.386 322.372 211.454 322.815 212.567 322.815H275.369V321.87C275.369 320.755 274.928 319.686 274.141 318.898C273.354 318.109 272.286 317.666 271.172 317.666H209.316V318.611ZM271.172 319.556H210.462C210.576 319.811 210.736 320.046 210.937 320.248C211.37 320.681 211.956 320.924 212.567 320.924H273.278C273.164 320.669 273.004 320.434 272.803 320.233C272.37 319.799 271.784 319.556 271.172 319.556Z"
          fill="#6562CF"/>
    <path fill-rule="evenodd" clip-rule="evenodd"
          d="M203.32 292.672L235.615 292.672C236.468 292.672 237.3 292.934 237.999 293.423C238.698 293.912 239.23 294.603 239.524 295.404C239.524 295.404 239.524 295.404 239.524 295.404L248.337 319.399H208.841L200.507 296.71C200.341 296.257 200.286 295.77 200.348 295.291C200.41 294.812 200.586 294.354 200.862 293.958C201.138 293.561 201.506 293.237 201.933 293.013C202.361 292.789 202.837 292.672 203.32 292.672ZM235.615 294.247C235.615 294.247 235.615 294.247 235.615 294.247H203.321C203.092 294.248 202.867 294.303 202.664 294.409C202.461 294.515 202.286 294.669 202.155 294.858C202.024 295.046 201.94 295.264 201.911 295.492C201.881 295.72 201.907 295.952 201.986 296.168C201.986 296.168 201.986 296.168 201.986 296.168L209.941 317.823H246.08L238.045 295.947C237.862 295.448 237.53 295.018 237.096 294.714C236.661 294.41 236.145 294.247 235.615 294.247Z"
          fill="#6562CF"/>
    <path d="M223.728 309.557C224.493 308.706 224.263 307.249 223.215 306.303C222.167 305.357 220.697 305.281 219.932 306.132C219.167 306.984 219.396 308.441 220.444 309.386C221.493 310.332 222.963 310.409 223.728 309.557Z"
          fill="#E4C580"/>
    <path fill-rule="evenodd" clip-rule="evenodd"
          d="M221.259 305.884C220.883 306.303 220.868 307.262 221.714 308.025C222.559 308.788 223.509 308.673 223.886 308.254C224.262 307.835 224.277 306.877 223.431 306.113C222.585 305.35 221.636 305.465 221.259 305.884ZM220.661 309.197C219.41 308.068 218.936 306.113 220.09 304.829C221.243 303.545 223.233 303.813 224.484 304.941C225.735 306.07 226.209 308.026 225.055 309.31C223.902 310.593 221.911 310.325 220.661 309.197Z"
          fill="#6562CF"/>
</svg>
